<svg width="24" height="18" viewBox="0 0 24 18" fill="none" xmlns="http://www.w3.org/2000/svg">
<path d="M23.9999 17.0936V0.9776L15.7927 9.2144L23.9999 17.0936Z" fill="white"/>
<path d="M0 0.97644V17.0936L8.2076 9.21404L0 0.97644Z" fill="white"/>
<path d="M0.554688 0.400024L8.95549 8.83202C9.00389 8.85242 9.14389 8.99802 9.16229 9.03963L11.5387 11.4248C11.7927 11.6612 12.2075 11.6608 12.4719 11.4148L14.8363 9.04163C14.8547 8.99962 14.9963 8.85242 15.0451 8.83202L23.4459 0.400024H0.554688Z" fill="white"/>
<path d="M15.2281 9.78162L13.0281 11.9896C12.7361 12.2616 12.3653 12.3972 11.9961 12.3972C11.6305 12.3972 11.2669 12.2644 10.9829 12L8.77248 9.78162L0.627686 17.6H23.3725L15.2281 9.78162Z" fill="white"/>
</svg>
