<svg width="16" height="12" viewBox="0 0 16 12" fill="none" xmlns="http://www.w3.org/2000/svg">
<path d="M2.66667 11.3333C5.09705 9.00418 6.24472 6.8776 6.24472 4.88603C6.24472 2.4219 4.92827 0.666626 3.03797 0.666626C1.35021 0.666626 0 2.08435 0 3.77211C0 5.42612 1.35021 6.81008 2.97046 6.81008C2.66667 7.89025 1.95781 9.03793 0.911392 9.98308L2.66667 11.3333ZM11.443 11.3333C13.8734 9.00418 15.0211 6.8776 15.0211 4.88603C15.0211 2.4219 13.7046 0.666626 11.8143 0.666626C10.1266 0.666626 8.77637 2.08435 8.77637 3.77211C8.77637 5.42612 10.1266 6.81008 11.7468 6.81008C11.443 7.89025 10.7342 9.03793 9.68776 9.98308L11.443 11.3333Z" fill="#1E293B"/>
</svg>
